<!DOCTYPE svg PUBLIC "-//W3C//DTD SVG 1.1//EN" "http://www.w3.org/Graphics/SVG/1.1/DTD/svg11.dtd">
<!-- Uploaded to: SVG Repo, www.svgrepo.com, Transformed by: SVG Repo Mixer Tools -->
<svg fill="#ffffff" height="800px" width="800px" version="1.1" id="Layer_1" xmlns="http://www.w3.org/2000/svg" xmlns:xlink="http://www.w3.org/1999/xlink" viewBox="0 0 512.561 512.561" xml:space="preserve">
<g id="SVGRepo_bgCarrier" stroke-width="0"/>
<g id="SVGRepo_tracerCarrier" stroke-linecap="round" stroke-linejoin="round"/>
<g id="SVGRepo_iconCarrier"> <g transform="translate(1 1)"> <g> <path d="M507.867,300.227l-39.253-29.833V229.4c0-14.507-11.093-25.6-25.6-25.6c-14.507,0-25.6,11.093-25.6,25.6v2.082 l-34.133-25.941v-44.407c0-14.507-11.093-25.6-25.6-25.6s-25.6,11.093-25.6,25.6v5.495l-34.133-25.941V96.28 c0-26.453-4.267-52.053-13.653-76.8C280.027,6.68,268.08-1,255.28-1c-12.8,0-24.747,8.533-29.013,21.333 c-9.387,24.747-13.653,50.347-13.653,76.8v42.701l-34.133,25.941v-4.642c0-14.507-11.093-25.6-25.6-25.6 c-14.507,0-25.6,11.093-25.6,25.6v43.554l-34.133,25.941V229.4c0-14.507-11.093-25.6-25.6-25.6s-25.6,11.093-25.6,25.6v40.141 L2.694,299.373c-2.56,1.707-3.413,4.267-3.413,6.827v51.2c0,3.413,1.707,5.973,3.413,6.827s3.413,1.707,5.12,1.707 c0.853,0,1.707,0,2.56,0l202.24-71.188v122.531l-63.147,26.311c-3.413,0.853-5.12,4.267-5.12,7.68v51.2 c0,3.413,1.707,5.973,4.267,7.68c1.707,1.707,5.12,1.707,7.68,0.853l98.987-41.813l98.987,40.96 C355.12,511,356.827,511,357.68,511c1.707,0,3.413,0,5.12-1.707s3.413-4.267,3.413-6.827v-51.2c0-3.413-1.707-5.973-5.12-7.68 l-63.147-26.311V295.509l202.24,69.571c0.853,0.853,1.707,0.853,2.56,0.853c1.707,0,3.413,0,5.12-0.853 c1.707-1.707,3.413-4.267,3.413-6.827v-51.2C511.28,304.493,509.574,301.933,507.867,300.227z M434.48,229.4 c0-5.12,3.413-8.533,8.533-8.533s8.533,3.413,8.533,8.533v27.307l-17.067-12.8V229.4z M349.147,161.133 c0-5.12,3.413-8.533,8.533-8.533s8.533,3.413,8.533,8.533v30.72l-17.067-12.8V161.133z M144.347,161.133 c0-5.12,3.413-8.533,8.533-8.533c5.12,0,8.533,4.267,8.533,8.533v17.613l-17.067,12.971V161.133z M59.014,229.4 c0-5.12,3.413-8.533,8.533-8.533s8.533,4.267,8.533,8.533v14.199L59.014,256.57V229.4z M16.347,345.453v-34.987l65.42-49.492 L89.734,255c0.387-0.258,0.722-0.541,1.034-0.834l121.846-92.179V278.04L16.347,345.453z M349.147,489.667l-90.453-37.547 c-0.853-0.853-2.56-0.853-3.413-0.853c-0.853,0-2.56,0.853-3.413,0.853l-90.453,37.547V457.24l93.867-39.253l93.867,39.253 V489.667z M258.694,400.92c-2.56-0.853-5.12-0.853-6.827,0l-22.187,9.244V283.16V151.747v-5.12v-2.56V97.133 c0-24.747,4.267-48.64,12.8-71.68c2.56-6.827,7.68-9.387,12.8-9.387c5.12,0,10.24,2.56,12.8,9.387 c8.533,23.04,12.8,46.933,12.8,70.827v48.64v2.56v5.12v131.413v126.151L258.694,400.92z M494.214,345.453L297.947,278.04V161.987 l36.092,27.304c0.458,0.627,0.954,1.208,1.455,1.709l34.133,25.6c0.475,0.237,0.95,0.473,1.424,0.692l49.608,37.529 c0.056,0.058,0.112,0.123,0.168,0.179l7.956,5.967l65.431,49.5V345.453z"/> </g> </g> </g>
</svg>