<!DOCTYPE svg PUBLIC "-//W3C//DTD SVG 1.1//EN" "http://www.w3.org/Graphics/SVG/1.1/DTD/svg11.dtd">
<!-- Uploaded to: SVG Repo, www.svgrepo.com, Transformed by: SVG Repo Mixer Tools -->
<svg fill="#00bbf0" height="800px" width="800px" version="1.1" id="Capa_1" xmlns="http://www.w3.org/2000/svg" xmlns:xlink="http://www.w3.org/1999/xlink" viewBox="0 0 60 60" xml:space="preserve" stroke="#00bbf0">
<g id="SVGRepo_bgCarrier" stroke-width="0"/>
<g id="SVGRepo_tracerCarrier" stroke-linecap="round" stroke-linejoin="round"/>
<g id="SVGRepo_iconCarrier"> <g> <path d="M0,8.5v43h60v-43H0z M58,49.5H2v-39h56V49.5z"/> <path d="M53,15.5H43v10h10V15.5z M51,23.5h-6v-6h6V23.5z"/> <path d="M8,21.5h20c0.552,0,1-0.447,1-1s-0.448-1-1-1H8c-0.552,0-1,0.447-1,1S7.448,21.5,8,21.5z"/> <path d="M8,26.5h20c0.552,0,1-0.447,1-1s-0.448-1-1-1H8c-0.552,0-1,0.447-1,1S7.448,26.5,8,26.5z"/> <path d="M8,16.5h8c0.552,0,1-0.447,1-1s-0.448-1-1-1H8c-0.552,0-1,0.447-1,1S7.448,16.5,8,16.5z"/> <path d="M23,39.5c0,3.309,2.691,6,6,6s6-2.691,6-6s-2.691-6-6-6S23,36.191,23,39.5z M33,39.5c0,2.206-1.794,4-4,4s-4-1.794-4-4 s1.794-4,4-4S33,37.294,33,39.5z"/> <path d="M37.77,37.139c0.683-0.824,1.778-0.824,2.461,0C40.958,38.017,41.942,38.5,43,38.5s2.042-0.483,2.77-1.361 c0.683-0.824,1.778-0.824,2.461,0C48.958,38.017,49.942,38.5,51,38.5s2.042-0.483,2.77-1.361c0.353-0.426,0.294-1.056-0.131-1.408 c-0.424-0.353-1.054-0.294-1.408,0.131c-0.683,0.824-1.778,0.824-2.461,0C49.042,34.983,48.058,34.5,47,34.5 s-2.042,0.483-2.77,1.361c-0.683,0.824-1.778,0.824-2.461,0C41.042,34.983,40.058,34.5,39,34.5s-2.042,0.483-2.77,1.361 c-0.353,0.426-0.294,1.056,0.131,1.408C36.787,37.623,37.417,37.564,37.77,37.139z"/> <path d="M37.77,43.139c0.683-0.824,1.778-0.824,2.461,0C40.958,44.017,41.942,44.5,43,44.5s2.042-0.483,2.77-1.361 c0.683-0.824,1.778-0.824,2.461,0C48.958,44.017,49.942,44.5,51,44.5s2.042-0.483,2.77-1.361c0.353-0.426,0.294-1.056-0.131-1.408 c-0.424-0.353-1.054-0.294-1.408,0.131c-0.683,0.824-1.778,0.824-2.461,0C49.042,40.983,48.058,40.5,47,40.5 s-2.042,0.483-2.77,1.361c-0.683,0.824-1.778,0.824-2.461,0C41.042,40.983,40.058,40.5,39,40.5s-2.042,0.483-2.77,1.361 c-0.353,0.426-0.294,1.056,0.131,1.408C36.787,43.623,37.417,43.564,37.77,43.139z"/> </g> </g>
</svg>